# xmcd
#
# Track frame offsets:
#	150
#	23492
#	57797
#	82617
#	107850
#	132327
#	162565
#	187260
#	210322
#	239395
#
# Disc length: 3573 seconds
# Revision: 0
# Processed by: cddbd v1.5.2PL0 Copyright (c) Steve Scherf et al.
# Submitted via: dBpowerAMP V12.0
#
DISCID=7d0df30a
DTITLE=Various Artist - The History of the House Sound of Chicago
DYEAR=1986
DGENRE=House
TTITLE0=Risque Rhythm Team - 122 House
TTITLE1=Matt Warren - Way to My Heart (Chicago House Mix)
TTITLE2=Mink - What Does It Take (Fashion Mix)
TTITLE3=Rhythim Is Rhythim - Nude Photo
TTITLE4=Philly Cream - Love Can't Turn Around (Vocal Club Version)
TTITLE5=Quest feat. Liz Torres - Mind Games (Street Mix)
TTITLE6=Kreem - Triangle of Love (Vocal Mix)
TTITLE7=Master Plan - Electric Baile (Commercial Mix)
TTITLE8=Billie - Nobody's Business (Radio Mix)
TTITLE9=Thompson and Lenoir - Can't Stop the House (Vocal Mix)
EXTD=
EXTT0=
EXTT1=
EXTT2=
EXTT3=
EXTT4=
EXTT5=
EXTT6=
EXTT7=
EXTT8=
EXTT9=
PLAYORDER=
